<svg width="33" height="37" viewBox="0 0 33 37" fill="none" xmlns="http://www.w3.org/2000/svg">
<path d="M14.7217 0.700999C15.2186 0.248388 15.8488 0 16.5 0C17.1512 0 17.7814 0.248388 18.2783 0.700999L32.0283 13.2469C32.3328 13.5245 32.5774 13.8701 32.7452 14.2596C32.913 14.6491 33 15.0733 33 15.5026V34.0425C33 34.8268 32.7103 35.5791 32.1945 36.1338C31.6788 36.6884 30.9793 37 30.25 37H19.7083C19.3437 37 18.9939 36.8442 18.7361 36.5669C18.4782 36.2896 18.3333 35.9134 18.3333 35.5212V23.1981H14.6667V35.5212C14.6667 35.9134 14.5218 36.2896 14.2639 36.5669C14.0061 36.8442 13.6563 37 13.2917 37H2.75C2.02065 37 1.32118 36.6884 0.805456 36.1338C0.289731 35.5791 0 34.8268 0 34.0425V15.5026C0 14.635 0.355667 13.8089 0.971667 13.2469L14.7217 0.700999ZM16.5 2.95662L2.75 15.5026V34.0425H11.9167V21.7193C11.9167 21.3271 12.0615 20.951 12.3194 20.6737C12.5773 20.3963 12.927 20.2405 13.2917 20.2405H19.7083C20.073 20.2405 20.4227 20.3963 20.6806 20.6737C20.9385 20.951 21.0833 21.3271 21.0833 21.7193V34.0425H30.25V15.5026L16.5 2.95662Z" fill="#D1D1D1"/>
</svg>
