<svg width="26" height="34" viewBox="0 0 26 34" fill="none" xmlns="http://www.w3.org/2000/svg">
<path d="M23.7143 10.2C23.7143 4.573 18.9107 0 13 0C7.08929 0 2.28571 4.573 2.28571 10.2C2.28571 15.6979 7.8196 22.9518 10.9332 26.5981C12.0327 27.8857 13.9673 27.8857 15.0668 26.5981C18.1804 22.9518 23.7143 15.6979 23.7143 10.2ZM9.42857 10.2C9.42857 8.33 11.0357 6.8 13 6.8C14.9643 6.8 16.5714 8.33 16.5714 10.2C16.5714 12.07 14.9821 13.6 13 13.6C11.0357 13.6 9.42857 12.07 9.42857 10.2ZM2.2 30.6C1.26112 30.6 0.5 31.3611 0.5 32.3V32.3C0.5 33.2389 1.26112 34 2.2 34H23.8C24.7389 34 25.5 33.2389 25.5 32.3V32.3C25.5 31.3611 24.7389 30.6 23.8 30.6H2.2Z" fill="#D1D1D1"/>
</svg>
