<svg width="363" height="228" viewBox="0 0 363 228" fill="none" xmlns="http://www.w3.org/2000/svg">
<path d="M30.7656 154.426C30.7656 158.267 31.7096 161.945 33.5977 165.461C35.4857 168.944 38.1061 172.02 41.459 174.689C44.1933 176.819 47.2355 178.556 50.5856 179.9C51.8054 180.389 52.324 181.871 51.6033 182.971L49.9608 185.475C49.4671 186.228 48.5292 186.563 47.6834 186.255C43.2258 184.628 39.2467 182.27 35.7461 179.182C33.1837 176.88 31.0414 174.332 29.3192 171.537C28.3773 170.009 25.8466 170.06 24.9741 171.628C23.2448 174.738 21.0411 177.565 18.3633 180.109C14.8614 183.464 10.8275 186.074 6.26146 187.939C5.40462 188.289 4.42891 187.963 3.91837 187.191L2.19406 184.584C1.47762 183.5 1.9694 182.034 3.1625 181.52C6.51155 180.079 9.56025 178.209 12.3086 175.91C15.694 173.046 18.3307 169.758 20.2188 166.047C22.1068 162.336 23.0508 158.462 23.0508 154.426V153.496C23.0508 152.392 22.1554 151.496 21.0508 151.496H4.73828C3.63371 151.496 2.73828 150.601 2.73828 149.496V147.246C2.73828 146.142 3.63371 145.246 4.73828 145.246H48.7852C49.8897 145.246 50.7852 146.142 50.7852 147.246V149.496C50.7852 150.601 49.8897 151.496 48.7852 151.496H32.7656C31.6611 151.496 30.7656 152.392 30.7656 153.496V154.426ZM71.1953 187.777C71.1953 188.882 70.2999 189.777 69.1953 189.777H65.5781C64.4736 189.777 63.5781 188.882 63.5781 187.777V141.191C63.5781 140.087 64.4736 139.191 65.5781 139.191H69.1953C70.2999 139.191 71.1953 140.087 71.1953 141.191V187.777ZM71.1953 222.738C71.1953 223.843 70.2999 224.738 69.1953 224.738H16.75C15.6454 224.738 14.75 223.843 14.75 222.738V196.27C14.75 195.165 15.6454 194.27 16.75 194.27H69.1953C70.2999 194.27 71.1953 195.165 71.1953 196.27V222.738ZM22.2695 216.488C22.2695 217.593 23.165 218.488 24.2695 218.488H61.6758C62.7803 218.488 63.6758 217.593 63.6758 216.488V202.422C63.6758 201.317 62.7803 200.422 61.6758 200.422H24.2695C23.165 200.422 22.2695 201.317 22.2695 202.422V216.488Z" fill="black"/>
<path d="M165.434 212.777C165.434 213.882 164.538 214.777 163.434 214.777H87.9414C86.8368 214.777 85.9414 213.882 85.9414 212.777V210.43C85.9414 209.325 86.8368 208.43 87.9414 208.43H119.684C120.788 208.43 121.684 207.534 121.684 206.43V191.68C121.684 190.575 120.788 189.68 119.684 189.68H97.3164C96.2118 189.68 95.3164 188.784 95.3164 187.68V147.246C95.3164 146.142 96.2118 145.246 97.3164 145.246H101.031C102.136 145.246 103.031 146.142 103.031 147.246V158.969C103.031 160.073 103.927 160.969 105.031 160.969H146.148C147.253 160.969 148.148 160.073 148.148 158.969V147.246C148.148 146.142 149.044 145.246 150.148 145.246H153.668C154.773 145.246 155.668 146.142 155.668 147.246V187.68C155.668 188.784 154.773 189.68 153.668 189.68H131.203C130.099 189.68 129.203 190.575 129.203 191.68V206.43C129.203 207.534 130.099 208.43 131.203 208.43H163.434C164.538 208.43 165.434 209.325 165.434 210.43V212.777ZM146.148 183.43C147.253 183.43 148.148 182.534 148.148 181.43V169.219C148.148 168.114 147.253 167.219 146.148 167.219H105.031C103.927 167.219 103.031 168.114 103.031 169.219V181.43C103.031 182.534 103.927 183.43 105.031 183.43H146.148Z" fill="black"/>
<path d="M241.02 171.273C241.02 172.378 241.915 173.273 243.02 173.273H251.715C252.819 173.273 253.715 174.169 253.715 175.273V177.816C253.715 178.921 252.819 179.816 251.715 179.816H243.02C241.915 179.816 241.02 180.712 241.02 181.816V223.91C241.02 225.015 240.124 225.91 239.02 225.91H235.402C234.298 225.91 233.402 225.015 233.402 223.91V140.996C233.402 139.892 234.298 138.996 235.402 138.996H239.02C240.124 138.996 241.02 139.892 241.02 140.996V171.273ZM197.074 152.621C197.074 153.726 196.179 154.621 195.074 154.621H184.621C183.517 154.621 182.621 155.517 182.621 156.621V194.592C182.621 195.723 183.56 196.632 184.69 196.571C188.663 196.357 192.365 195.931 195.796 195.293C196.956 195.077 198.076 195.869 198.218 197.041L198.515 199.487C198.639 200.514 197.96 201.469 196.944 201.666C193.979 202.242 191.207 202.624 188.627 202.814C185.535 203.042 182.263 203.156 178.812 203.156H177.004C175.899 203.156 175.004 202.261 175.004 201.156V150.273C175.004 149.169 175.899 148.273 177.004 148.273H195.074C196.179 148.273 197.074 149.169 197.074 150.273V152.621ZM225.199 152.621C225.199 153.726 224.304 154.621 223.199 154.621H211.672C210.567 154.621 209.672 155.517 209.672 156.621V194.675C209.672 195.793 210.589 196.696 211.707 196.661C214.535 196.574 217.095 196.411 219.389 196.174C221.51 195.954 223.658 195.616 225.834 195.16C227.007 194.913 228.158 195.707 228.302 196.897L228.598 199.337C228.72 200.345 228.068 201.288 227.076 201.502C224.179 202.127 221.372 202.548 218.656 202.766C215.401 203.026 211.267 203.156 206.254 203.156H204.055C202.95 203.156 202.055 202.261 202.055 201.156V150.273C202.055 149.169 202.95 148.273 204.055 148.273H223.199C224.304 148.273 225.199 149.169 225.199 150.273V152.621Z" fill="black"/>
<path d="M330.473 224.105C330.473 225.21 329.577 226.105 328.473 226.105H324.855C323.751 226.105 322.855 225.21 322.855 224.105V141.094C322.855 139.989 323.751 139.094 324.855 139.094H328.473C329.577 139.094 330.473 139.989 330.473 141.094V224.105ZM304.105 176.059C304.105 177.163 303.21 178.059 302.105 178.059H273.684C272.579 178.059 271.684 178.954 271.684 180.059V196.566C271.684 197.671 272.579 198.567 273.684 198.561C280.706 198.525 287.266 198.299 293.363 197.883C299.443 197.47 305.791 196.762 312.406 195.76C313.527 195.59 314.57 196.377 314.707 197.502L315.007 199.976C315.136 201.043 314.399 202.022 313.336 202.184C306.503 203.229 299.943 203.96 293.656 204.377C286.788 204.8 279.268 205.012 271.098 205.012H265.871C264.767 205.012 263.871 204.116 263.871 203.012V173.809C263.871 172.704 264.767 171.809 265.871 171.809H294.391C295.495 171.809 296.391 170.913 296.391 169.809V155.547C296.391 154.442 295.495 153.547 294.391 153.547H265.676C264.571 153.547 263.676 152.651 263.676 151.547V149.199C263.676 148.095 264.571 147.199 265.676 147.199H302.105C303.21 147.199 304.105 148.095 304.105 149.199V176.059Z" fill="black"/>
<path d="M6 138.5V105.494L163 104.747L359.5 104V228" stroke="#399148" stroke-width="7" stroke-linejoin="round"/>
<rect x="218.915" y="9.19238" width="70" height="15" transform="rotate(50 218.915 9.19238)" fill="#399148"/>
<rect x="195.114" y="13.4985" width="95" height="15" transform="rotate(50 195.114 13.4985)" fill="#399148"/>
<path d="M209.335 53.7822L218.977 65.2729L176 98.7774L155.712 98.7774L209.335 53.7822Z" fill="#399148"/>
</svg>
