<svg width="33" height="35" viewBox="0 0 33 35" fill="none" xmlns="http://www.w3.org/2000/svg">
<path d="M16.5 4.15625C18.82 4.15625 20.7 6.2125 20.7 8.75C20.7 11.2875 18.82 13.3438 16.5 13.3438C14.18 13.3438 12.3 11.2875 12.3 8.75C12.3 6.2125 14.18 4.15625 16.5 4.15625ZM16.5 23.8437C22.44 23.8437 28.7 27.0375 28.7 28.4375V28.4375C28.7 29.7664 27.6227 30.8437 26.2938 30.8437H6.70625C5.37731 30.8437 4.3 29.7664 4.3 28.4375V28.4375C4.3 27.0375 10.56 23.8437 16.5 23.8437ZM16.5 0C12.08 0 8.5 3.91562 8.5 8.75C8.5 13.5844 12.08 17.5 16.5 17.5C20.92 17.5 24.5 13.5844 24.5 8.75C24.5 3.91562 20.92 0 16.5 0ZM16.5 19.6875C11.16 19.6875 0.5 22.6187 0.5 28.4375V32C0.5 33.6569 1.84315 35 3.5 35H29.5C31.1569 35 32.5 33.6569 32.5 32V28.4375C32.5 22.6187 21.84 19.6875 16.5 19.6875Z" fill="#D1D1D1"/>
</svg>
