<svg width="33" height="30" viewBox="0 0 33 30" fill="none" xmlns="http://www.w3.org/2000/svg">
<path d="M26.3694 6.91972C26.3688 6.91833 26.3692 6.91667 26.3704 6.91575C26.738 6.6374 26.9965 6.23311 27.1023 5.77101C27.2084 5.30803 27.1547 4.81545 26.9504 4.37662L25.5742 1.4254C25.3388 0.920631 24.9221 0.525584 24.4157 0.327168C23.9093 0.128753 23.3548 0.143223 22.8741 0.367394L1.12268 10.5102C0.641942 10.7344 0.2744 11.1499 0.100907 11.6654C-0.0725862 12.1808 -0.0378188 12.7539 0.19756 13.2587L1.57374 16.2099C1.77854 16.6485 2.12137 17.0063 2.54421 17.2226C2.96705 17.439 3.44393 17.5007 3.89416 17.3972C4.56854 17.245 5.28186 17.3395 5.91398 17.6646C6.54609 17.9897 7.05836 18.5257 7.36449 19.1822C7.67063 19.8387 7.75191 20.5756 7.59466 21.2688C7.43742 21.9621 7.05124 22.5692 6.50118 22.988C6.13184 23.2669 5.87229 23.6728 5.7666 24.1368C5.66091 24.6008 5.71559 25.0943 5.92137 25.5335L7.29755 28.4847C7.53293 28.9895 7.94964 29.3845 8.45601 29.5829C8.96238 29.7813 9.51693 29.7669 9.99766 29.5427L31.749 19.3999C32.2298 19.1757 32.5973 18.7602 32.7708 18.2447C32.9443 17.7293 32.9095 17.1561 32.6742 16.6514L31.298 13.7002C31.0932 13.2615 30.7503 12.9038 30.3275 12.6874C29.9047 12.4711 29.4278 12.4094 28.9776 12.5129C28.3032 12.665 27.5899 12.5706 26.9577 12.2455C26.3256 11.9204 25.8134 11.3844 25.5072 10.7279C25.2011 10.0714 25.1198 9.33446 25.2771 8.64124C25.4341 7.9489 25.8195 7.34241 26.3685 6.92368C26.3697 6.92275 26.3701 6.9211 26.3694 6.91972ZM8.07632 25.4224C7.87698 24.9949 8.01232 24.4933 8.33588 24.15C8.93884 23.5105 9.36631 22.7089 9.56904 21.8224C9.83381 20.6645 9.699 19.4328 9.18744 18.3358C8.67587 17.2387 7.81899 16.3437 6.76185 15.8023C5.95238 15.3877 5.06358 15.2 4.18607 15.2507C3.71518 15.278 3.24391 15.0592 3.04457 14.6317L2.43279 13.3198C2.19939 12.8192 2.41594 12.2243 2.91648 11.9909L7.44802 9.87777C7.94856 9.64436 8.54354 9.86092 8.77695 10.3615L15.0317 23.7748C15.2651 24.2753 15.0485 24.8703 14.548 25.1037L10.0165 27.2168C9.51593 27.4502 8.92095 27.2337 8.68754 26.7331L8.07632 25.4224ZM29.4859 14.5466L30.4389 16.5903C30.6723 17.0908 30.4558 17.6858 29.9552 17.9192L18.1732 23.4133C17.6727 23.6467 17.0777 23.4301 16.8443 22.9296L10.5896 9.51622C10.3562 9.01568 10.5727 8.4207 11.0733 8.18729L22.8553 2.69326C23.3558 2.45985 23.9508 2.67641 24.1842 3.17695L24.7954 4.48772C24.9947 4.9152 24.8594 5.41684 24.5358 5.76004C23.9329 6.3996 23.5054 7.20116 23.3027 8.08773C23.0379 9.24557 23.1727 10.4773 23.6843 11.5743C24.1958 12.6714 25.0527 13.5664 26.1099 14.1078C27.1666 14.649 28.3586 14.8037 29.4841 14.5457C29.4848 14.5455 29.4856 14.5459 29.4859 14.5466Z" fill="white"/>
</svg>
