<svg width="43" height="40" viewBox="0 0 43 40" fill="none" xmlns="http://www.w3.org/2000/svg">
<g filter="url(#filter0_d_562_1921)">
<path d="M29.3694 9.91972C29.3688 9.91833 29.3692 9.91667 29.3704 9.91575C29.738 9.6374 29.9965 9.23311 30.1023 8.77101C30.2084 8.30803 30.1547 7.81545 29.9504 7.37662L28.5742 4.4254C28.3388 3.92063 27.9221 3.52558 27.4157 3.32717C26.9093 3.12875 26.3548 3.14322 25.8741 3.36739L4.12268 13.5102C3.64194 13.7344 3.2744 14.1499 3.10091 14.6654C2.92741 15.1808 2.96218 15.7539 3.19756 16.2587L4.57374 19.2099C4.77854 19.6485 5.12137 20.0063 5.54421 20.2226C5.96705 20.439 6.44393 20.5007 6.89416 20.3972C7.56854 20.245 8.28186 20.3395 8.91398 20.6646C9.54609 20.9897 10.0584 21.5257 10.3645 22.1822C10.6706 22.8387 10.7519 23.5756 10.5947 24.2688C10.4374 24.9621 10.0512 25.5692 9.50118 25.988C9.13184 26.2669 8.87229 26.6728 8.7666 27.1368C8.66091 27.6008 8.71559 28.0943 8.92137 28.5335L10.2975 31.4847C10.5329 31.9895 10.9496 32.3845 11.456 32.5829C11.9624 32.7813 12.5169 32.7669 12.9977 32.5427L34.749 22.3999C35.2298 22.1757 35.5973 21.7602 35.7708 21.2447C35.9443 20.7293 35.9095 20.1561 35.6742 19.6514L34.298 16.7002C34.0932 16.2615 33.7503 15.9038 33.3275 15.6874C32.9047 15.4711 32.4278 15.4094 31.9776 15.5129C31.3032 15.665 30.5899 15.5706 29.9577 15.2455C29.3256 14.9204 28.8134 14.3844 28.5072 13.7279C28.2011 13.0714 28.1198 12.3345 28.2771 11.6412C28.4341 10.9489 28.8195 10.3424 29.3685 9.92368C29.3697 9.92275 29.3701 9.9211 29.3694 9.91972ZM11.0763 28.4224C10.877 27.9949 11.0123 27.4933 11.3359 27.15C11.9388 26.5105 12.3663 25.7089 12.569 24.8224C12.8338 23.6645 12.699 22.4328 12.1874 21.3358C11.6759 20.2387 10.819 19.3437 9.76185 18.8023C8.95238 18.3877 8.06358 18.2 7.18607 18.2507C6.71518 18.278 6.24391 18.0592 6.04457 17.6317L5.43279 16.3198C5.19939 15.8192 5.41594 15.2243 5.91648 14.9909L10.448 12.8778C10.9486 12.6444 11.5435 12.8609 11.7769 13.3615L18.0317 26.7748C18.2651 27.2753 18.0485 27.8703 17.548 28.1037L13.0165 30.2168C12.5159 30.4502 11.9209 30.2337 11.6875 29.7331L11.0763 28.4224ZM32.4859 17.5466L33.4389 19.5903C33.6723 20.0908 33.4558 20.6858 32.9552 20.9192L21.1732 26.4133C20.6727 26.6467 20.0777 26.4301 19.8443 25.9296L13.5896 12.5162C13.3562 12.0157 13.5727 11.4207 14.0733 11.1873L25.8553 5.69326C26.3558 5.45985 26.9508 5.67641 27.1842 6.17695L27.7954 7.48772C27.9947 7.9152 27.8594 8.41684 27.5358 8.76004C26.9329 9.3996 26.5054 10.2012 26.3027 11.0877C26.0379 12.2456 26.1727 13.4773 26.6843 14.5743C27.1958 15.6714 28.0527 16.5664 29.1099 17.1078C30.1666 17.649 31.3586 17.8037 32.4841 17.5457C32.4848 17.5455 32.4856 17.5459 32.4859 17.5466Z" fill="white"/>
</g>
<defs>
<filter id="filter0_d_562_1921" x="-0.0078125" y="0.188232" width="42.8877" height="39.5337" filterUnits="userSpaceOnUse" color-interpolation-filters="sRGB">
<feFlood flood-opacity="0" result="BackgroundImageFix"/>
<feColorMatrix in="SourceAlpha" type="matrix" values="0 0 0 0 0 0 0 0 0 0 0 0 0 0 0 0 0 0 127 0" result="hardAlpha"/>
<feOffset dx="2" dy="2"/>
<feGaussianBlur stdDeviation="2.5"/>
<feComposite in2="hardAlpha" operator="out"/>
<feColorMatrix type="matrix" values="0 0 0 0 0 0 0 0 0 0 0 0 0 0 0 0 0 0 0.25 0"/>
<feBlend mode="normal" in2="BackgroundImageFix" result="effect1_dropShadow_562_1921"/>
<feBlend mode="normal" in="SourceGraphic" in2="effect1_dropShadow_562_1921" result="shape"/>
</filter>
</defs>
</svg>
