<svg width="53" height="55" viewBox="0 0 53 55" fill="none" xmlns="http://www.w3.org/2000/svg">
<rect x="0.876465" width="51.3834" height="55" rx="6" fill="#399148"/>
<path d="M37.5457 39.125C37.5457 35.5587 32.7352 32.6667 26.8019 32.6667C20.8686 32.6667 16.0581 35.5587 16.0581 39.125M26.8019 28.7917C25.021 28.7917 23.3131 28.1112 22.0538 26.9001C20.7945 25.6889 20.087 24.0462 20.087 22.3333C20.087 20.6205 20.7945 18.9778 22.0538 17.7666C23.3131 16.5554 25.021 15.875 26.8019 15.875C28.5828 15.875 30.2908 16.5554 31.55 17.7666C32.8093 18.9778 33.5168 20.6205 33.5168 22.3333C33.5168 24.0462 32.8093 25.6889 31.55 26.9001C30.2908 28.1112 28.5828 28.7917 26.8019 28.7917Z" stroke="white" stroke-width="2" stroke-linecap="round" stroke-linejoin="round"/>
</svg>
