<svg width="39" height="53" viewBox="0 0 39 53" fill="none" xmlns="http://www.w3.org/2000/svg">
<path d="M26.6002 6.6605C28.3528 6.6605 29.7735 5.1695 29.7735 3.33025C29.7735 1.491 28.3528 0 26.6002 0C24.8477 0 23.4269 1.491 23.4269 3.33025C23.4269 5.1695 24.8477 6.6605 26.6002 6.6605Z" fill="#D1D1D1"/>
<path d="M36.9134 19.1489C37.7896 19.1489 38.5 18.4386 38.5 17.5623V13.272C38.5 12.0867 37.8021 11.0125 36.7191 10.5308L30.4875 7.75948C28.9484 7.07678 27.1714 7.65957 26.2829 9.15819L24.6962 11.8224C23.6535 13.7498 21.7405 15.1965 19.4215 15.6596C19.3634 15.6712 19.3401 15.7425 19.381 15.7854V15.7854C20.3384 16.7901 21.4656 17.4001 22.7309 17.6487C23.0883 17.719 23.4605 17.6409 23.7709 17.4502V17.4502C25.0442 16.6677 27.0246 17.2295 27.3044 18.6977L27.3624 19.0022C27.4811 19.625 27.2828 20.266 26.8333 20.7131L25.1048 22.4321C24.5386 22.9952 24.2202 23.7607 24.2202 24.5592V34.2135C24.2202 35.0898 24.9306 35.8002 25.8069 35.8002V35.8002C26.6832 35.8002 27.3935 35.0898 27.3935 34.2135V26.6763C27.3935 26.1213 27.6141 25.589 28.0067 25.1966V25.1966C29.1791 24.0247 31.1838 24.6169 31.5313 26.2378L33.3012 34.4932C33.4646 35.2555 34.1384 35.8002 34.9182 35.8002V35.8002C35.9545 35.8002 36.7354 34.8579 36.5431 33.8396L33.4545 17.4838L32.8938 14.5419C32.7116 13.5857 33.6619 12.8081 34.5632 13.1759V13.1759C35.0249 13.3643 35.3267 13.8135 35.3267 14.3122V17.5623C35.3267 18.4386 36.0371 19.1489 36.9134 19.1489V19.1489Z" fill="#D1D1D1"/>
<path d="M16.7472 12.8381C17.0962 13.0879 17.4929 13.2377 17.8896 13.321C18.0958 13.3543 18.2862 13.3876 18.4925 13.3876C18.6987 13.3876 18.905 13.371 19.0954 13.321C19.3017 13.2877 19.4921 13.2211 19.6825 13.1378C20.0633 12.9713 20.4282 12.7382 20.7296 12.4052C21.5071 11.5893 21.7927 10.457 21.6023 9.40796C21.4912 8.79186 21.2056 8.17576 20.7296 7.69288C20.4282 7.3765 20.0633 7.12673 19.6825 6.96022C19.4921 6.87697 19.3017 6.81036 19.0954 6.77706C18.8891 6.74375 18.6987 6.71045 18.4925 6.71045C18.3021 6.71045 18.1276 6.7271 17.9372 6.76041C17.715 6.79371 17.4929 6.86031 17.2866 6.94357C16.9217 7.12673 16.5568 7.3765 16.2553 7.69288C15.7793 8.17576 15.4937 8.79186 15.3827 9.40796C15.1923 10.457 15.4779 11.5893 16.2553 12.4052C16.3981 12.5717 16.5727 12.7049 16.7472 12.8381Z" fill="#D1D1D1"/>
<path d="M18.2545 16.951L15.0812 13.6207C14.9225 13.4542 14.7639 13.321 14.5894 13.1878C14.2403 12.9547 13.8436 12.7882 13.447 12.7216C13.2407 12.6716 13.0503 12.6549 12.844 12.6549C12.0349 12.6549 11.2257 12.988 10.6069 13.6374L5.30752 19.1989C4.65699 19.8816 4.3238 20.8307 4.38727 21.7632C4.38727 22.0629 4.45073 22.3793 4.5618 22.679L5.66269 25.8643C6.02925 26.9249 5.77326 28.1014 4.99915 28.9138L1.56462 32.5182C0.967937 33.1444 0.966201 34.1283 1.56067 34.7566V34.7566C2.20034 35.4326 3.27598 35.4345 3.91803 34.7607L9.09678 29.3258C9.33283 29.0781 9.46451 28.749 9.46451 28.4068V27.6924C9.46451 26.7794 10.5634 26.3167 11.2165 26.9546V26.9546C11.4151 27.1487 11.5271 27.4147 11.5271 27.6924V34.2135C11.5271 35.0898 12.2375 35.8002 13.1138 35.8002V35.8002C13.9901 35.8002 14.7004 35.0898 14.7004 34.2135V27.0099C14.7004 26.2393 14.4039 25.4982 13.8723 24.9404L13.1187 24.1494C12.1209 23.1023 12.1209 21.4564 13.1187 20.4093L13.9547 19.5319C14.5679 18.8884 15.5946 18.8884 16.2077 19.5319V19.5319C17.8555 21.2209 19.9042 22.392 22.3458 22.7844C23.335 22.9434 24.134 22.0824 24.0695 21.0825V21.0825C24.0113 20.179 23.2601 19.4947 22.3745 19.3061C20.7218 18.954 19.3485 18.0991 18.2545 16.951Z" fill="#D1D1D1"/>
<path d="M10.9219 48.4805H4.82812V43.8027H10.834V44.5547H5.76562V45.7363H10.6484V46.4688H5.76562V47.7383H10.9219V48.4805ZM11.8301 50.7266H3.82227V49.9648H11.8301V50.7266ZM15.8535 47.1328H13.6367V48.9297C14.1868 48.9264 14.6898 48.9102 15.1455 48.8809C15.6045 48.8483 16.0814 48.7865 16.5762 48.6953L16.6543 49.457C16.1042 49.5547 15.5785 49.6198 15.0771 49.6523C14.5791 49.6849 14.0013 49.7044 13.3438 49.7109H12.7383V46.3906H14.9648V44.7695H12.7285V44.0176H15.8535V47.1328ZM19.9746 51.8301H19.0859V43.0801H19.9746V51.8301ZM18.1777 51.3809H17.2988V46.9277H16.2637V46.1758H17.2988V43.2754H18.1777V51.3809ZM28.3535 51.8496H27.4258V43.0801H28.3535V51.8496ZM23.6758 43.7344C24.1087 43.7344 24.4961 43.8613 24.8379 44.1152C25.1797 44.3659 25.4466 44.724 25.6387 45.1895C25.834 45.6517 25.9316 46.1888 25.9316 46.8008C25.9316 47.416 25.834 47.9564 25.6387 48.4219C25.4466 48.8874 25.1797 49.2471 24.8379 49.501C24.4961 49.7516 24.1087 49.877 23.6758 49.877C23.2363 49.877 22.8457 49.7516 22.5039 49.501C22.1621 49.2471 21.8936 48.889 21.6982 48.4268C21.5062 47.9613 21.4102 47.4193 21.4102 46.8008C21.4102 46.1855 21.5062 45.6468 21.6982 45.1846C21.8936 44.7191 22.1621 44.361 22.5039 44.1104C22.8457 43.8597 23.2363 43.7344 23.6758 43.7344ZM23.6758 44.5645C23.4056 44.5645 23.1663 44.6556 22.958 44.8379C22.7529 45.0202 22.5934 45.2806 22.4795 45.6191C22.3656 45.9544 22.3086 46.3483 22.3086 46.8008C22.3086 47.2565 22.3656 47.6536 22.4795 47.9922C22.5934 48.3307 22.7529 48.5911 22.958 48.7734C23.1663 48.9557 23.4056 49.0469 23.6758 49.0469C23.9427 49.0469 24.1787 48.9557 24.3838 48.7734C24.5889 48.5911 24.7484 48.3307 24.8623 47.9922C24.9762 47.6536 25.0332 47.2565 25.0332 46.8008C25.0332 46.3483 24.9762 45.9544 24.8623 45.6191C24.7484 45.2806 24.5889 45.0202 24.3838 44.8379C24.1787 44.6556 23.9427 44.5645 23.6758 44.5645ZM37.0547 51.8496H36.127V46.6641H33.5195V45.9023H36.127V43.0801H37.0547V51.8496ZM31.1562 48.9688C31.8496 48.959 32.4909 48.9281 33.0801 48.876C33.6725 48.8239 34.265 48.7376 34.8574 48.6172L34.9746 49.3789C34.3171 49.5156 33.666 49.61 33.0215 49.6621C32.3802 49.7142 31.6803 49.7402 30.9219 49.7402H30.2188V44.0469H31.1562V48.9688Z" fill="#D1D1D1"/>
</svg>
